<?xml version="1.0" encoding="utf-8"?>
<!-- Generator: Adobe Illustrator 19.2.0, SVG Export Plug-In . SVG Version: 6.00 Build 0)  -->
<svg version="1.1" id="Layer_1" xmlns="http://www.w3.org/2000/svg" xmlns:xlink="http://www.w3.org/1999/xlink" x="0px" y="0px"
	 viewBox="0 0 368.6 144.3" style="enable-background:new 0 0 368.6 144.3;" xml:space="preserve">
<style type="text/css">
	.st0{fill:#FFFFFF;}
	.st1{opacity:0.75;}
	.st2{opacity:0.5;}
	.st3{fill-rule:evenodd;clip-rule:evenodd;fill:#FFFFFF;}
</style>
<path class="st0" d="M20.6,68c-2.2,2.3-4.7,3.4-7.5,3.4c-1.8,0-3.5-0.4-5.1-1.2c-1.6-0.8-3-1.9-4.2-3.3C2.6,65.6,1.7,64,1,62.2
	c-0.7-1.8-1-3.6-1-5.5c0-2,0.3-3.8,1-5.6c0.7-1.7,1.6-3.3,2.8-4.6c1.2-1.3,2.6-2.3,4.3-3.1c1.6-0.8,3.4-1.2,5.3-1.2
	c2.6,0,4.8,0.6,6.6,1.7c1.8,1.1,3.2,2.7,4.1,4.6l-4.1,3.1c-0.7-1.4-1.6-2.5-2.8-3.3c-1.2-0.8-2.5-1.1-4-1.1c-1.2,0-2.2,0.3-3.2,0.8
	c-0.9,0.5-1.7,1.2-2.4,2.1C7,51,6.5,52,6.1,53.2c-0.4,1.2-0.6,2.4-0.6,3.7c0,1.4,0.2,2.6,0.6,3.8c0.4,1.2,1,2.2,1.7,3.1
	c0.7,0.9,1.6,1.5,2.5,2c1,0.5,2,0.8,3.2,0.8c2.6,0,5-1.3,7.1-3.9v-2h-5.7v-4.1h10.2v14.8h-4.5V68z"/>
<path class="st0" d="M29.9,71.2V42.5h12.5c1.3,0,2.5,0.3,3.6,0.8c1.1,0.6,2.1,1.3,2.9,2.2c0.8,0.9,1.4,1.9,1.9,3.1
	c0.5,1.1,0.7,2.3,0.7,3.5c0,1.9-0.5,3.6-1.4,5.1s-2.2,2.6-3.7,3.3L53,71.2h-6.2l-5.9-9.6h-5.4v9.6H29.9z M35.4,56.7h6.9
	c0.5,0,1-0.1,1.4-0.4c0.4-0.2,0.8-0.6,1.1-1c0.3-0.4,0.6-0.9,0.8-1.5c0.2-0.6,0.3-1.2,0.3-1.8c0-0.7-0.1-1.3-0.3-1.9
	c-0.2-0.6-0.5-1.1-0.9-1.5c-0.4-0.4-0.8-0.7-1.2-1c-0.5-0.2-0.9-0.3-1.4-0.3h-6.7V56.7z"/>
<path class="st0" d="M76.4,66.3v4.9H56.8V42.5h19.3v4.9H62.3v6.9h11.9v4.5H62.3v7.5H76.4z"/>
<path class="st0" d="M78,71.2l11.2-28.7h4.5l11.1,28.7h-5.8l-2.6-7.2h-9.9l-2.6,7.2H78z M91.4,48.5l-4.1,11.6h8L91.4,48.5z"/>
<path class="st0" d="M126.3,47.4h-9v23.8h-5.5V47.4h-9v-4.9h23.6V47.4z"/>
<path class="st0" d="M221.5,54.6c-0.3-0.3-1-0.8-1.9-1.4c-0.9-0.6-2-1.2-3.3-1.8c-1.3-0.6-2.7-1.1-4.2-1.5c-1.5-0.4-3.1-0.6-4.6-0.6
	c-2.8,0-4.9,0.5-6.3,1.6c-1.4,1-2.1,2.5-2.1,4.4c0,1.1,0.3,2,0.8,2.7c0.5,0.7,1.3,1.4,2.2,1.9c1,0.5,2.2,1,3.7,1.5
	c1.5,0.4,3.2,0.9,5.2,1.4c2.6,0.7,4.9,1.4,7,2.2c2.1,0.8,3.9,1.8,5.3,3c1.4,1.2,2.6,2.6,3.4,4.3c0.8,1.7,1.2,3.7,1.2,6.2
	c0,2.8-0.5,5.3-1.6,7.3c-1.1,2-2.5,3.7-4.2,4.9c-1.8,1.2-3.8,2.2-6.2,2.7c-2.4,0.6-4.8,0.9-7.4,0.9c-3.9,0-7.8-0.6-11.6-1.8
	c-3.8-1.2-7.3-2.9-10.3-5.1l4.5-8.9c0.4,0.4,1.2,1,2.4,1.8c1.2,0.7,2.5,1.4,4.1,2.2c1.6,0.7,3.3,1.3,5.2,1.8
	c1.9,0.5,3.9,0.8,5.9,0.8c5.6,0,8.4-1.8,8.4-5.5c0-1.2-0.3-2.2-1-3c-0.6-0.8-1.5-1.5-2.7-2.1c-1.2-0.6-2.6-1.1-4.3-1.6
	c-1.7-0.5-3.5-1-5.6-1.6c-2.5-0.7-4.7-1.5-6.5-2.3c-1.8-0.8-3.4-1.8-4.6-2.9c-1.2-1.1-2.2-2.4-2.8-3.9c-0.6-1.5-0.9-3.3-0.9-5.3
	c0-2.7,0.5-5.1,1.5-7.2c1-2.1,2.3-3.8,4.1-5.2c1.7-1.4,3.8-2.5,6.1-3.2c2.3-0.7,4.8-1.1,7.4-1.1c3.7,0,7.1,0.6,10.2,1.8
	c3.1,1.2,5.8,2.6,8.1,4.2L221.5,54.6z"/>
<path class="st0" d="M158,85.4c2.4,0,4.4-0.5,6.1-1.5s3-2.3,4-3.9c1-1.6,1.7-3.4,2.1-5.5c0.4-2.1,0.6-4.2,0.6-6.4V41H181v27.1
	c0,3.6-0.4,7.1-1.3,10.3c-0.9,3.2-2.2,6-4.1,8.4c-1.8,2.4-4.2,4.3-7.1,5.7c-2.9,1.4-6.4,2.1-10.4,2.1c-4.2,0-7.7-0.7-10.7-2.2
	c-2.9-1.5-5.3-3.4-7.1-5.8c-1.8-2.4-3.1-5.2-3.9-8.4c-0.8-3.2-1.2-6.5-1.2-10V41h10.2v27.1c0,2.2,0.2,4.4,0.6,6.5
	c0.4,2.1,1.1,3.9,2.1,5.5c1,1.6,2.3,2.9,3.9,3.9C153.7,84.9,155.7,85.4,158,85.4z"/>
<g class="st1">
	<path class="st0" d="M2.2,35.9c4.5-3.5,9.2-8.5,14-14.8c5.3-6.9,7.9-11.9,7.9-15.1c0-1.9-1.4-2.8-4.3-2.8c-1.9,0-4.3,0.4-7.2,1.1
		c-2,0.6-4.1,1.2-6.1,1.8c-1.6,0.4-3.1,0.4-4.3,0c-0.8-0.3-1.5-0.8-2-1.5C-0.1,4.3,0,4.1,0.3,4c2.8-1.1,6.1-2.1,9.8-2.8
		C13.9,0.4,17.3,0,20.2,0c5.6,0,8.3,1.8,8.3,5.4c0,3.6-2.8,9-8.4,16C15.2,27.6,10.7,32.1,6.7,35c-1.2,0.9-2.5,1.3-3.7,1.3
		c-0.6,0-0.9-0.1-0.9-0.2C2,36,2.1,36,2.2,35.9z"/>
	<path class="st0" d="M41.2,5.1c-1.1,1.9-3.8,5.3-7.9,10.4c-4.8,5.9-8.1,10-9.9,12.5c2.8-3.1,5.7-5.5,8.9-7.3
		c0.7-0.4,1.2,0.1,1.6,1.5c0.2,0.6,0,1.3-0.5,2c-0.7,1.1-1.4,2.1-2.1,3.2c-0.8,1.3-1.1,2.3-1.1,2.9c0,0.4,0.2,0.6,0.6,0.6
		c1.6,0,3.7-1.7,6.4-5.2c0.2-0.3,0.4-0.3,0.5,0c0.2,0.7,0.2,1.2-0.2,1.7c-3.4,4.3-6.2,6.5-8.6,6.5c-0.7,0-1.3-0.2-1.8-0.7
		c-0.5-0.5-0.7-1-0.7-1.8c0-2.1,1.5-4.8,4.6-8.1c-1.6,1-3.4,2.5-5.6,4.4c-2.2,1.9-4,3.8-5.4,5.4c-0.3,0.3-0.5,0.3-0.8,0.1
		c-0.7-0.5-1.1-1-1.1-1.6c0-0.3,0.2-0.8,0.6-1.4c2.3-3.8,5.8-9.1,10.6-15.9c4.9-6.9,8.4-11.6,10.5-14c0.2-0.2,0.4-0.2,0.7,0
		c0.6,0.5,1,1.1,1.2,1.9c0.1,0.4,0.1,0.7,0.1,1C41.8,3.7,41.6,4.3,41.2,5.1z"/>
	<path class="st0" d="M50.6,27.4c-3.5,4.6-7.1,6.8-10.7,6.8c-1.5,0-2.6-0.4-3.5-1.1c-0.8-0.8-1.2-1.8-1.2-3c0-2.2,1.2-4.4,3.5-6.5
		c2.3-2.2,4.8-3.3,7.3-3.3c1.8,0,2.7,0.8,2.6,2.4c-0.1,1.4-1,2.7-2.8,3.8c-1.9,1.2-4,1.7-6.4,1.6c-0.1,0.2-0.1,0.5-0.1,0.9
		c-0.1,1.6,0.6,2.4,2.2,2.4c3,0,5.9-1.9,8.8-5.7c0.2-0.3,0.4-0.3,0.5,0C51,26.4,50.9,26.9,50.6,27.4z M39.8,27
		c1.4-0.3,2.6-0.9,3.7-1.8c1-0.8,1.6-1.5,1.9-2.3c0.2-0.5,0.1-0.8-0.3-0.8c-0.7,0-1.6,0.5-2.7,1.5C41.2,24.6,40.4,25.8,39.8,27z"/>
</g>
<g class="st1">
	<path class="st0" d="M81.6,114.7c0-8.8,4.1-17.5,12.2-26.2c3.6-3.8,7.5-6.8,11.7-9c4.2-2.2,8.1-3.4,11.6-3.4c1.9,0,3.3,0.5,4.3,1.6
		c0.9,0.9,1.4,2,1.4,3.4c0,3-1.7,6.3-5.2,9.9c-2.6,2.7-4.9,4.1-6.7,4.1c-1,0-1.5-0.2-1.5-0.5c0,0,0.4-0.5,1.2-1.3
		c1.7-1.7,3.2-3.6,4.4-5.5c1.5-2.4,2.3-4.3,2.3-5.8c0-1.3-0.6-1.9-1.9-1.9c-3.4,0-7.4,1.8-12,5.5c-4.4,3.6-8.1,7.9-11.1,13
		c-3.3,5.4-5,10.3-5,14.7c0,2.2,0.6,3.9,1.7,5.1c1.2,1.2,2.7,1.8,4.7,1.8c5.4,0,10.3-3,15-9c0.3-0.3,0.5-0.3,0.6,0.1
		c0.3,0.9,0.3,1.7-0.2,2.3c-5.7,7.4-11.6,11.1-17.6,11.1c-2.8,0-5.2-0.8-6.9-2.4C82.6,120.4,81.6,117.9,81.6,114.7z"/>
	<path class="st0" d="M125.6,113.4c-4.3,5.5-7.9,8.2-11,8.2c-1,0-1.8-0.3-2.5-0.9c-0.7-0.6-1-1.4-1-2.4c0-3.1,2.3-6.6,7-10.6
		c-0.2,0-1.2,0.4-2.9,1.1c-1.4,0.5-2.6,0.7-3.6,0.8c-0.6,1.2-1.5,2.5-2.5,3.8c-0.3,0.4-0.5,0.4-0.6-0.1c-0.3-0.9-0.2-1.7,0.3-2.4
		c0.5-0.7,0.9-1.3,1.3-1.9c-0.6-0.5-0.9-1.2-0.9-2.1c0-1.1,0.5-2.3,1.6-3.5c1.1-1.2,2-1.8,2.8-1.8c0.6,0,0.8,0.4,0.8,1.1
		c0,0.7-0.2,1.5-0.6,2.5c1.5-0.5,3.6-1.1,6.3-1.7c0.8,0,1.3,0.3,1.6,1c0.3,0.7,0.5,1.5,0.5,2.3c0,0.7-0.3,1.4-0.8,2
		c-3.4,3.4-5.1,6.1-5.1,8c0,0.5,0.3,0.8,0.8,0.8c2.1,0,4.9-2.2,8.2-6.6c0.3-0.4,0.5-0.4,0.6,0.1C126.1,112.1,126,112.8,125.6,113.4z
		"/>
	<path class="st0" d="M143.6,113.4c-2.2,2.8-4.3,4.2-6.2,4.2c-0.6,0-1.3-0.2-1.8-0.5c-2.5,3.4-5.3,5.1-8.3,5.1
		c-1.3,0-2.5-0.5-3.4-1.4c-0.9-0.9-1.4-2.2-1.4-3.8c0-3.4,1.4-6.5,4.2-9.3c2.8-2.8,5.9-4.2,9.4-4.2c1.1,0,2,0.2,2.9,0.6
		c0.2,0.1,0.3,0.2,0.3,0.4c0,0.2-0.1,0.3-0.4,0.3c-2.7,0.7-5.1,2.2-7.2,4.5c-2.1,2.4-3.2,4.6-3.2,6.7c0,1.3,0.5,1.9,1.6,1.9
		c1.3,0,2.8-0.8,4.3-2.5c-0.2-0.7-0.3-1.3-0.3-1.8c0-1.4,0.5-2.8,1.4-4.1c0.9-1.3,1.9-1.9,2.8-1.9c0.6,0,0.9,0.4,0.9,1.3
		c0,1.8-0.6,3.8-1.9,6c0.3,0.1,0.5,0.1,0.6,0.1c1.6,0,3.3-1.3,5.4-3.9c0.3-0.4,0.5-0.4,0.6,0.1C144.2,112.1,144.1,112.8,143.6,113.4
		z"/>
	<path class="st0" d="M159.2,113.4c-2.3,3-5.1,5.1-8.4,6.2c-1.6,1.9-3.9,2.8-6.7,2.8c-2,0-3-0.6-3-1.7c0-0.8,0.6-1.5,1.9-2.2
		c1.3-0.7,2.8-1,4.5-1.1c0.6-0.8,1.1-2.5,1.4-5.1c0.3-2.9,0.6-4.8,1-5.7c-1.4,0.9-3.4,3.2-6.2,6.7c-0.3,0.3-0.5,0.3-0.6-0.1
		c-0.3-0.9-0.2-1.7,0.3-2.3c3.6-4.7,6.5-7.5,8.7-8.3c1-0.4,2-0.6,2.8-0.6c1,0,1.6,0.2,1.7,0.7c0.3,0.8-0.5,1.5-2.3,2.2
		c-0.3,0.8-0.5,1.9-0.5,3.4c0,1.1,0,2.3,0,3.5c0,1.9-0.3,3.4-0.9,4.5c1.9-1,4-2.8,6-5.4c0.3-0.3,0.5-0.3,0.6,0.1
		C159.7,112.1,159.7,112.8,159.2,113.4z"/>
	<path class="st0" d="M174.7,113.4c-2.3,3-5.1,5.1-8.4,6.2c-1.6,1.9-3.9,2.8-6.7,2.8c-2,0-3-0.6-3-1.7c0-0.8,0.6-1.5,1.9-2.2
		c1.3-0.7,2.8-1,4.5-1.1c0.6-0.8,1.1-2.5,1.4-5.1c0.3-2.9,0.6-4.8,1-5.7c-1.4,0.9-3.4,3.2-6.2,6.7c-0.3,0.3-0.5,0.3-0.6-0.1
		c-0.3-0.9-0.2-1.7,0.3-2.3c3.6-4.7,6.5-7.5,8.7-8.3c1-0.4,2-0.6,2.8-0.6c1,0,1.6,0.2,1.7,0.7c0.3,0.8-0.5,1.5-2.3,2.2
		c-0.3,0.8-0.5,1.9-0.5,3.4c0,1.1,0,2.3,0,3.5c0,1.9-0.3,3.4-0.9,4.5c1.9-1,4-2.8,6-5.4c0.3-0.3,0.5-0.3,0.6,0.1
		C175.3,112.1,175.2,112.8,174.7,113.4z"/>
	<path class="st0" d="M170.9,118c0-1.6,0.8-3.7,2.5-6.2c1.4-2.1,3.1-4.2,5.1-6.2c0.3-0.3,0.6-0.4,0.9-0.1c0.5,0.4,0.9,1,1.1,1.6
		c0.3,0.8,0.2,1.7-0.4,2.6c-0.8,1.2-1.6,2.4-2.3,3.6c-1,1.5-1.5,2.6-1.5,3.4c0,0.8,0.4,1.2,1.2,1.2c2,0,4.8-2.3,8.4-6.8
		c0.1-0.2,0.2-0.2,0.3-0.2c0.1,0,0.2,0.1,0.3,0.3c0.4,0.8,0.4,1.6-0.2,2.3c-4.3,5.7-8.1,8.5-11.3,8.5
		C172.2,122,170.9,120.7,170.9,118z M186,96.2c1.3,0,1.9,0.7,1.9,2.2c0,1.4-0.6,2.7-1.7,3.9c-1.1,1.2-2.3,1.8-3.6,1.8
		c-1.3,0-2-0.7-2-2.2c0-1.2,0.6-2.4,1.7-3.7C183.5,96.9,184.7,96.2,186,96.2z"/>
	<path class="st0" d="M206.6,113.4c-4.4,5.9-8.3,8.8-11.8,8.8c-1,0-1.8-0.3-2.4-1c-0.6-0.6-0.9-1.4-0.9-2.4c0-2.9,2.1-6.6,6.3-11
		c-5,3.2-9.9,7.6-14.7,13.1c-0.3,0.3-0.6,0.4-1,0.1c-0.8-0.7-1.2-1.5-1.2-2.5c0-0.7,0.3-1.4,0.9-2.4c2.2-2.9,4.9-6.8,8.2-11.8
		c0.2-0.4,0.5-0.5,0.8-0.2c0.5,0.4,0.8,0.8,1.1,1.2c0.4,0.7,0.4,1.4,0.1,2.1c-1,2.1-2.1,3.9-3.4,5.7c3.6-3.8,7.3-6.8,11.1-9
		c0.5-0.3,0.9-0.2,1.3,0.2c0.6,0.8,0.9,1.7,0.9,2.6c0,0.7-0.2,1.3-0.6,2c-0.9,1.5-1.9,2.9-2.8,4.4c-1,1.8-1.6,3.1-1.6,4
		c0,0.5,0.3,0.8,0.8,0.8c2.2,0,5.1-2.3,8.7-7c0.3-0.3,0.5-0.3,0.6,0.1C207.1,112,207.1,112.8,206.6,113.4z"/>
	<path class="st0" d="M226.5,113.4c-1.8,2.3-5.2,5.9-10.2,10.7c-6.1,5.9-11.1,12.7-14.8,20.2c-0.3,0.6-0.7,0.7-1.2,0.4
		c-1.3-0.8-2-1.8-2-3c0-1,0.4-2.2,1.2-3.7c1.2-2.2,3.8-5.8,7.8-10.7c4.6-5.6,7.5-9.3,8.7-11.1c-3.5,3.9-6.7,5.8-9.5,5.8
		c-2.5,0-3.8-1.2-3.8-3.6c0-3.2,2-6.5,6-9.9c4-3.4,7.8-5.1,11.5-5.1c2.3,0,3.4,0.9,3.4,2.8c0,1-0.4,1.9-1.3,2.7
		c-0.8,0.8-1.7,1.2-2.7,1.2c-1.2,0-1.7-0.4-1.7-1.2c0-0.4,0.1-0.8,0.4-1.3c0.3-0.5,0.4-0.9,0.4-1.1c0-0.3-0.2-0.5-0.5-0.5
		c-1.3,0-3.1,1.1-5.3,3.4c-2.4,2.5-3.6,4.5-3.6,6.2c0,0.9,0.4,1.3,1.3,1.3c1.3,0,3.6-1.4,6.9-4.3c0.4-0.3,0.8-0.3,1.3,0.1
		c0.5,0.4,0.8,0.8,1.1,1.3c0.3,0.6,0.1,1.4-0.5,2.6c-0.5,1-1.3,2.2-2.5,3.8c3.7-3,6.8-6.2,9.3-9.4c0.3-0.4,0.5-0.4,0.6,0.1
		C227,112.1,226.9,112.8,226.5,113.4z"/>
</g>
<g>
	<g class="st2">
		<path class="st3" d="M263.6,86.8c-8.1-0.4-15.6,3.2-20.4,9c4.3-4.2,10.3-6.7,16.9-6.5c12.5,0.5,22.2,11.1,21.7,23.7
			c-0.5,12.5-11.1,22.2-23.7,21.7c-6.5-0.3-12.3-3.3-16.2-7.9c4.4,6.2,11.5,10.3,19.6,10.7c14,0.6,25.8-10.2,26.4-24.2
			C288.4,99.2,277.5,87.4,263.6,86.8z"/>
		<path class="st3" d="M344.4,83c-8.1-0.4-15.6,3.2-20.4,9c4.3-4.2,10.3-6.7,16.9-6.5c12.5,0.5,22.2,11.1,21.7,23.7
			c-0.5,12.5-11.1,22.2-23.7,21.7c-6.5-0.3-12.3-3.3-16.2-7.9c4.4,6.2,11.5,10.3,19.6,10.7c14,0.6,25.8-10.2,26.4-24.2
			C369.2,95.5,358.4,83.6,344.4,83z"/>
		<path class="st3" d="M300.2,105c36.3-35.7-13.8-28.4-13.8-28.4s26.1-12,33-2.7C319.4,73.9,328.2,82.3,300.2,105z"/>
		<path class="st3" d="M364.1,79.3c0,0-2.8-6.3-14.5-8.6c-11.6-2.4-27.9-2-27.3-13.7c0,0-8.6,8.8,3.6,16.7
			C334.7,79.3,348,69.8,364.1,79.3"/>
		<g>
			<path class="st3" d="M294.9,47.8l-2.7,6.3l3.8,2c21-12.6,42-8.7,42-8.7S319.4,39.2,294.9,47.8z"/>
		</g>
	</g>
	<g>
		<polygon class="st0" points="283.7,64.8 278,71.5 277.6,62.7 268.8,62.4 275.4,56.6 270.2,49.6 278.8,51.2 281,42.7 285.2,50.4 
			293.2,46.9 289.8,54.9 297.5,59 289.1,61.3 290.8,69.9 		"/>
		<polygon class="st0" points="350.8,55.7 345.1,62.4 344.7,53.6 335.9,53.4 342.5,47.6 337.3,40.6 345.9,42.1 348.1,33.6 
			352.3,41.3 360.3,37.8 356.9,45.9 364.6,49.9 356.2,52.3 357.9,60.9 		"/>
		<polygon class="st0" points="339.2,112.8 334.8,118 334.4,111.1 327.6,110.9 332.7,106.4 328.6,100.9 335.4,102.1 337.1,95.5 
			340.4,101.5 346.7,98.7 344,105 350.1,108.2 343.5,110.1 344.8,116.8 		"/>
		<polygon class="st0" points="259.8,117.6 255.4,122.9 255.1,116 248.2,115.8 253.4,111.2 249.3,105.7 256,106.9 257.8,100.3 
			261,106.3 267.3,103.6 264.6,109.9 270.7,113.1 264.1,114.9 265.4,121.7 		"/>
		<polygon class="st0" points="301.3,100.5 305.7,99.4 303.8,103.5 306.2,107.4 301.7,106.9 298.7,110.3 297.8,105.9 293.6,104.2 
			297.5,101.9 297.9,97.4 		"/>
	</g>
</g>
</svg>
