<svg xmlns="http://www.w3.org/2000/svg" xmlns:xlink="http://www.w3.org/1999/xlink" version="1.1" x="0px" y="0px" viewBox="0 0 100 100" enable-background="new 0 0 100 100" xml:space="preserve"><path d="M95.91,49.159c-3.82-5-9.62-7.87-15.91-7.87c-2.21,0-4.33,0.36-6.32,1.03l-5.1-11.35l-0.03-0.07  c-0.09-0.2-0.21-0.38-0.36-0.54l2.32-6.47h1.57c0.09,0,0.17-0.01,0.26-0.02c0.08-0.01,0.17-0.03,0.25-0.05  c0.17-0.04,0.34-0.11,0.5-0.2l2-1.19c0.95-0.56,1.27-1.78,0.71-2.74c-0.57-0.95-1.79-1.26-2.74-0.7l-1.53,0.9h-9.46  c-1.1,0-2,0.9-2,2c0,1.11,0.9,2,2,2h4.18l-2.08,5.83l-30.62,0.03l1.3-3.59c0.06-0.15,0.11-0.3,0.13-0.46c0.02-0.1,0.03-0.2,0.03-0.3  c0-0.01,0-0.01,0-0.02c0-0.11-0.01-0.23-0.03-0.34c-0.02-0.09-0.04-0.17-0.06-0.25c-0.03-0.11-0.08-0.22-0.13-0.32  c-0.04-0.07-0.08-0.14-0.12-0.21c-0.01-0.01-0.01-0.02-0.02-0.02c-0.05-0.08-0.12-0.16-0.19-0.23c-0.05-0.06-0.11-0.12-0.18-0.18  c-0.27-0.21-0.59-0.37-0.95-0.42c-0.11-0.02-0.22-0.03-0.32-0.03h-10c-0.07,0-0.14,0-0.21,0.01c-4.32,0.1-7.79,3.34-7.79,7.33  c0,4.04,3.58,7.33,8,7.33c1.1,0,2-0.89,2-2c0-1.1-0.9-2-2-2c-2.21,0-4-1.49-4-3.33c0-1.85,1.79-3.34,4-3.34h7.14l-2.87,7.94  c-0.03,0.06-0.05,0.12-0.06,0.18l-2.32,6.4c-1.58-0.41-3.22-0.61-4.9-0.61c-11.03,0-20,8.98-20,20c0,11.03,8.97,20,20,20  c11.03,0,20-8.97,20-20c0-4.42-1.41-8.62-4.09-12.13c-1.96-2.57-4.44-4.57-7.25-5.91l1.3-3.59l20.76,20.24  c-0.14,0.44-0.22,0.91-0.22,1.39c0,2.49,2.02,4.5,4.5,4.5c1.77,0,3.3-1.02,4.03-2.5h1.07c1.01,10.1,9.55,18,19.9,18  c11.03,0,20-8.97,20-20C100,56.869,98.59,52.669,95.91,49.159z M32.73,51.589c2.14,2.81,3.27,6.16,3.27,9.7c0,8.83-7.17,16-16,16  c-8.82,0-16-7.17-16-16c0-8.82,7.18-16,16-16c1.2,0,2.38,0.13,3.53,0.39l-5.44,15.02c-0.37,1.03,0.16,2.18,1.2,2.56  c0.23,0.08,0.46,0.12,0.68,0.12c0.82,0,1.59-0.51,1.88-1.32l5.44-15.02C29.38,48.109,31.25,49.649,32.73,51.589z M76.91,59.289  H64.13c0.61-4.94,3.49-9.18,7.55-11.66L76.91,59.289z M54.48,56.819c-0.33,0.04-0.65,0.11-0.96,0.23l-22.06-21.53l0.64-1.77  l30.64-0.03L54.48,56.819z M59.03,59.289c-0.2-0.41-0.47-0.79-0.79-1.11l8.06-22.52l3.73,8.31c-5.44,3.13-9.28,8.77-9.93,15.32  H59.03z M80,77.289c-8.14,0-14.89-6.11-15.87-14H80c1.11,0,2-0.89,2-2c0-0.29-0.06-0.57-0.17-0.82l-6.5-14.48  c1.48-0.46,3.05-0.7,4.67-0.7c5.03,0,9.67,2.3,12.73,6.3c2.14,2.81,3.27,6.16,3.27,9.7C96,70.119,88.83,77.289,80,77.289z"></path></svg>