<svg xmlns="http://www.w3.org/2000/svg" xmlns:xlink="http://www.w3.org/1999/xlink" version="1.1" x="0px" y="0px" viewBox="0 0 100 100" enable-background="new 0 0 100 100" xml:space="preserve"><path d="M50,90.378l-2.083-1.363C46.165,87.87,5.032,60.689,5.032,36.178c0-17.434,12.389-26.556,24.627-26.556  c7.823,0,15.151,3.651,20.338,9.96c5.171-6.298,12.509-9.96,20.345-9.96c12.238,0,24.626,9.122,24.626,26.556  c0,24.511-41.133,51.693-42.884,52.838L50,90.378z M29.659,17.237c-8.194,0-17.012,5.928-17.012,18.941  c0,15.951,25.25,36.7,37.353,45.061c12.103-8.36,37.353-29.11,37.353-45.061c0-13.014-8.818-18.941-17.011-18.941  c-6.718,0-12.752,3.714-16.551,10.19c-0.157,0.26-0.288,0.489-0.424,0.748l-3.363,6.362l-3.369-6.358  c-0.138-0.26-0.269-0.491-0.396-0.701C42.409,20.95,36.377,17.237,29.659,17.237z"></path></svg>