<svg xmlns="http://www.w3.org/2000/svg" xmlns:xlink="http://www.w3.org/1999/xlink" version="1.1" baseProfile="tiny" x="0px" y="0px" viewBox="0 0 100 100" xml:space="preserve"><path fill="#000000" d="M50,46.7c6.1,0,11.1-5,11.1-11.1c0-6.1-5-11.1-11.1-11.1c-6.1,0-11.1,5-11.1,11.1  C38.9,41.8,43.9,46.7,50,46.7z M50,29.1c3.6,0,6.6,3,6.6,6.6c0,3.6-3,6.6-6.6,6.6c-3.6,0-6.6-3-6.6-6.6C43.4,32,46.3,29.1,50,29.1z"></path><path fill="#000000" d="M58.5,91h32.6h0c1.2,0,2.2-1,2.2-2.2c0-0.5-0.2-1-0.5-1.4l-13.2-24c-0.4-0.7-1.1-1.1-2-1.1H63.5  c6.2-9.1,12.4-20.1,12.4-27.3c0-14.3-11.6-26-26-26S24,20.7,24,35c0,7.1,6.3,18.2,12.4,27.3H22.3c-0.8,0-1.5,0.4-1.9,1.1L6.9,87.7  c-0.4,0.7-0.4,1.5,0,2.2C7.4,90.6,8.1,91,8.9,91H58.5C58.5,91,58.5,91,58.5,91C58.5,91,58.5,91,58.5,91z M62.1,86.5l4-7.7h17l0,0  l4.2,7.7H62.1z M28.5,35c0-11.8,9.6-21.5,21.5-21.5c11.8,0,21.5,9.6,21.5,21.5c0,6.4-6.8,17.8-13.4,27.3c-1.1,1.5-2.2,3-3.2,4.5  c-1.8,2.4-3.5,4.6-4.9,6.4c-1.4-1.8-3.1-3.9-4.9-6.4c-0.8-1.1-1.6-2.1-2.4-3.3l-0.1-0.2c-0.2-0.3-0.4-0.6-0.7-0.9  C35.3,52.8,28.5,41.4,28.5,35z M23.6,66.7h13.1L24.4,86.5H12.7L23.6,66.7z M40.9,68.5c3.9,5.3,7.1,9.1,7.4,9.6  c0.4,0.5,1,0.8,1.7,0.8c0.7,0,1.3-0.3,1.7-0.8c0.4-0.5,4.2-5.1,8.7-11.3h16l4.2,7.7H64.8c-0.8,0-1.6,0.5-2,1.2l-5.7,10.9H29.6  L40.9,68.5z"></path></svg>