<?xml version="1.0" encoding="utf-8"?>
<!-- Generator: Adobe Illustrator 19.2.0, SVG Export Plug-In . SVG Version: 6.00 Build 0)  -->
<svg version="1.1" id="Layer_1" xmlns="http://www.w3.org/2000/svg" xmlns:xlink="http://www.w3.org/1999/xlink" x="0px" y="0px"
	 viewBox="0 0 100 100" style="enable-background:new 0 0 100 100;" xml:space="preserve">
<path d="M23.7,26.3C10.6,26.3,0,37,0,50c0,13,10.6,23.7,23.7,23.7S47.3,63,47.3,50C47.3,37,36.7,26.3,23.7,26.3z M12.8,52l8.9-17.6
	l9,17.6h-5.3l-3.6-7.1L18.1,52H12.8z M27.9,65.1L21.3,52h4l2.7,5.3l2.7-5.3h4L27.9,65.1z"/>
<path d="M75.7,26.3c-13,0-23.7,10.6-23.7,23.7c0,13,10.6,23.7,23.7,23.7c13,0,23.7-10.6,23.7-23.7C99.4,37,88.8,26.3,75.7,26.3z
	 M75.9,37.8c1.5-0.3,3,0.6,3.3,2.1c0.3,1.5-0.6,3-2.1,3.3c-1.5,0.3-3-0.6-3.3-2.1C73.5,39.6,74.4,38.1,75.9,37.8z M84.9,54.3
	c-0.2,1.8-1,8.1-1.2,8.4c-0.2,0.3-0.5,0.6-0.8,0.7c-0.4,0.1-1.1,0.1-1.4,0.1c-0.1,0-0.2-0.1-0.2-0.1c-0.8-0.4-0.9-1.3-0.8-2.1
	c0.1-1.7,0.2-3.9,0.2-5.4c-0.9-1-2.7-1.3-3.7-1.6c-3.5,1.3-9.2,8.2-10,8.7c-0.3,0.2-0.7,0.2-1,0.1c-0.4-0.1-0.9-0.5-1.1-0.8
	c-0.3-0.5-0.1-1.8,0.5-2.4c1.3-1.6,6.1-7.4,7.2-9.1c0-0.3,0.1-0.9,0.1-0.9h0c0,0,0-0.4,0-0.6c0-1.2-0.3-2.4-0.8-3.7
	c-0.2-0.3-0.3-0.7-0.5-1c0,0-4.5-6.3-4.5-6.7c0-0.4,0.1-1,0.3-1.2c0.2-0.2,0.5-0.4,1.1-0.4c0.7,0,4,4.8,5.1,6.3
	c1.9,2.4,4.8,2.3,6.5-0.5c0.7-1.4,3.2-5.7,4-5.8c0.8-0.1,1.1,0.2,1.3,0.4c0.2,0.2,0.3,0.7,0.3,1c0,0.3-3.3,5.4-3.7,6.9
	c-0.1,0.3-0.2,0.8-0.2,0.8c-0.1,0.5-0.3,0.9-0.4,1.3c-0.3,1-0.5,2-0.7,3.1c0,0.1-0.1,0.3-0.1,0.4C81.8,52,83.6,52.5,84.9,54.3z"/>
</svg>
