<?xml version="1.0" encoding="utf-8"?>
<!-- Generator: Adobe Illustrator 19.2.0, SVG Export Plug-In . SVG Version: 6.00 Build 0)  -->
<svg version="1.1" id="Layer_1" xmlns="http://www.w3.org/2000/svg" xmlns:xlink="http://www.w3.org/1999/xlink" x="0px" y="0px"
	 viewBox="0 0 319.7 55.3" style="enable-background:new 0 0 319.7 55.3;" xml:space="preserve">
<style type="text/css">
	.st0{fill:#001E2C;}
</style>
<g>
	<path class="st0" d="M200.1,27.1c-3.4-4.4-8.5-6.9-14-6.9c-1.9,0-3.8,0.3-5.6,0.9l-4.5-10l0-0.1c-0.1-0.2-0.2-0.3-0.3-0.5l2-5.7
		h1.4c0.1,0,0.1,0,0.2,0c0.1,0,0.1,0,0.2,0c0.1,0,0.3-0.1,0.4-0.2l1.8-1c0.8-0.5,1.1-1.6,0.6-2.4c-0.5-0.8-1.6-1.1-2.4-0.6l-1.3,0.8
		h-8.3c-1,0-1.8,0.8-1.8,1.8c0,1,0.8,1.8,1.8,1.8h3.7l-1.8,5.1l-26.9,0l1.1-3.2c0.1-0.1,0.1-0.3,0.1-0.4c0-0.1,0-0.2,0-0.3
		c0,0,0,0,0,0c0-0.1,0-0.2,0-0.3c0-0.1,0-0.1-0.1-0.2c0-0.1-0.1-0.2-0.1-0.3c0-0.1-0.1-0.1-0.1-0.2c0,0,0,0,0,0
		c0-0.1-0.1-0.1-0.2-0.2c0-0.1-0.1-0.1-0.2-0.2c-0.2-0.2-0.5-0.3-0.8-0.4c-0.1,0-0.2,0-0.3,0H136c-0.1,0-0.1,0-0.2,0
		c-3.8,0.1-6.8,2.9-6.8,6.4c0,3.6,3.1,6.4,7,6.4c1,0,1.8-0.8,1.8-1.8c0-1-0.8-1.8-1.8-1.8c-1.9,0-3.5-1.3-3.5-2.9
		c0-1.6,1.6-2.9,3.5-2.9h6.3l-2.5,7c0,0.1,0,0.1-0.1,0.2l-2,5.6c-1.4-0.4-2.8-0.5-4.3-0.5c-9.7,0-17.6,7.9-17.6,17.6
		c0,9.7,7.9,17.6,17.6,17.6S151,47.4,151,37.8c0-3.9-1.2-7.6-3.6-10.7c-1.7-2.3-3.9-4-6.4-5.2l1.1-3.2l18.2,17.8
		c-0.1,0.4-0.2,0.8-0.2,1.2c0,2.2,1.8,4,4,4c1.6,0,2.9-0.9,3.5-2.2h0.9c0.9,8.9,8.4,15.8,17.5,15.8c9.7,0,17.6-7.9,17.6-17.6
		C203.7,33.9,202.5,30.2,200.1,27.1z M144.6,29.2c1.9,2.5,2.9,5.4,2.9,8.5c0,7.8-6.3,14.1-14.1,14.1c-7.8,0-14.1-6.3-14.1-14.1
		c0-7.8,6.3-14.1,14.1-14.1c1.1,0,2.1,0.1,3.1,0.3l-4.8,13.2c-0.3,0.9,0.1,1.9,1.1,2.2c0.2,0.1,0.4,0.1,0.6,0.1
		c0.7,0,1.4-0.4,1.7-1.2l4.8-13.2C141.6,26.2,143.3,27.5,144.6,29.2z M183.4,36h-11.2c0.5-4.3,3.1-8.1,6.6-10.2L183.4,36z
		 M163.7,33.8c-0.3,0-0.6,0.1-0.8,0.2l-19.4-18.9l0.6-1.6l26.9,0L163.7,33.8z M167.7,36c-0.2-0.4-0.4-0.7-0.7-1l7.1-19.8l3.3,7.3
		c-4.8,2.8-8.2,7.7-8.7,13.5H167.7z M186.1,51.8c-7.2,0-13.1-5.4-13.9-12.3h13.9c1,0,1.8-0.8,1.8-1.8c0-0.3-0.1-0.5-0.1-0.7
		L182,24.3c1.3-0.4,2.7-0.6,4.1-0.6c4.4,0,8.5,2,11.2,5.5c1.9,2.5,2.9,5.4,2.9,8.5C200.2,45.5,193.9,51.8,186.1,51.8z"/>
</g>
<g>
	<path class="st0" d="M281.7,48.1l-27.5-47c-0.9-1.5-3.1-1.5-3.9,0l-27.3,47.1c-0.8,1.5-0.8,3.1,0,4.6c0.9,1.4,2.4,2.2,4.1,2.2h50.7
		c1.6,0,3.1-0.9,3.9-2.3S282.5,49.5,281.7,48.1z M252.3,6.7l8.9,15.3l-3.7,2.5l-6.1-8.1l-5.3,1.1L252.3,6.7z M226.9,50.5l16.1-27.8
		l6.4-1.3l6.9,9.3l7.1-4.7l14.4,24.7L226.9,50.5L226.9,50.5z"/>
</g>
<g>
	<g>
		<path class="st0" d="M67.2,55.1L67.2,55.1c-0.6,0-1.1-0.2-1.5-0.6l-0.8-0.8C61.4,50.2,50.3,39.1,43.2,32
			c-3.8-3.8-5.9-8.7-5.9-13.7c0-4.8,1.9-9.4,5.4-12.8c3.5-3.5,8.1-5.3,13-5.3c4.2,0,8.2,1.4,11.5,4.1c3.2-2.6,7.2-4,11.5-4.1
			c0,0,0,0,0.1,0c4.9,0,9.5,1.9,13,5.3c3.5,3.5,5.4,8,5.4,12.8c0,5-2.1,9.9-5.9,13.7c-4.9,4.9-11.7,11.7-16.6,16.6l-5.9,5.9
			C68.3,54.9,67.7,55.1,67.2,55.1z M55.7,4.3c-3.8,0-7.3,1.5-10,4.1c-2.7,2.7-4.1,6.1-4.1,9.8c0,3.9,1.6,7.7,4.6,10.7
			c6.7,6.7,16.9,16.9,21,21l4.4-4.4c4.9-4.9,11.7-11.7,16.6-16.6c3-3,4.6-6.8,4.6-10.7c0-3.7-1.5-7.2-4.1-9.8
			c-2.7-2.7-6.2-4.1-10-4.1c0,0,0,0,0,0c-3.8,0-7.3,1.5-10,4.2c-0.4,0.4-0.9,0.6-1.5,0.6l0,0c-0.6,0-1.1-0.2-1.5-0.6
			C63,5.8,59.5,4.3,55.7,4.3C55.7,4.3,55.7,4.3,55.7,4.3z"/>
	</g>
</g>
<circle class="st0" cx="10" cy="29.2" r="10"/>
<circle class="st0" cx="309.7" cy="29.2" r="10"/>
</svg>
