<?xml version="1.0" encoding="utf-8"?>
<!-- Generator: Adobe Illustrator 19.2.0, SVG Export Plug-In . SVG Version: 6.00 Build 0)  -->
<svg version="1.1" id="Layer_1" xmlns="http://www.w3.org/2000/svg" xmlns:xlink="http://www.w3.org/1999/xlink" x="0px" y="0px"
	 viewBox="0 0 300 300" style="enable-background:new 0 0 300 300;" xml:space="preserve">
<style type="text/css">
	.st0{opacity:0.5;}
	.st1{fill-rule:evenodd;clip-rule:evenodd;fill:#588DB2;}
	.st2{fill:#588DB2;}
</style>
<g>
	<g class="st0">
		<path class="st1" d="M51.5,153c-19.3-0.8-36.8,7.5-48.3,21.2c10.2-10,24.4-15.9,39.8-15.3c29.6,1.3,52.6,26.3,51.3,55.9
			C93,244.4,68,267.4,38.4,266.1C23,265.4,9.3,258.3,0,247.5c10.3,14.6,27.1,24.4,46.3,25.3c33.1,1.4,61-24.2,62.5-57.3
			C110.2,182.4,84.6,154.4,51.5,153z"/>
		<path class="st1" d="M242.6,144c-19.3-0.8-36.8,7.5-48.3,21.2c10.2-10,24.4-15.9,39.8-15.3c29.6,1.3,52.6,26.3,51.3,55.9
			s-26.3,52.6-55.9,51.3c-15.4-0.7-29.1-7.8-38.4-18.7c10.3,14.6,27.1,24.4,46.3,25.3c33.1,1.4,61-24.2,62.5-57.3
			C301.4,173.4,275.7,145.5,242.6,144z"/>
		<path class="st1" d="M138.2,195.9c85.8-84.3-32.6-67.2-32.6-67.2s61.8-28.5,78-6.3C183.6,122.4,204.2,142.3,138.2,195.9z"/>
		<path class="st1" d="M289.2,135.1c0,0-6.6-14.8-34.2-20.4c-27.5-5.6-66-4.6-64.6-32.4c0,0-20.4,20.8,8.6,39.6
			C219.7,135.3,251.2,112.6,289.2,135.1"/>
		<g>
			<path class="st1" d="M125.5,60.7l-6.3,14.8l9,4.7c49.7-29.8,99.3-20.5,99.3-20.5S183.5,40.4,125.5,60.7z"/>
		</g>
	</g>
	<g>
		<polygon class="st2" points="99.1,100.9 85.6,116.7 84.7,96 64,95.3 79.6,81.6 67.2,65 87.6,68.7 92.8,48.7 102.7,66.9 
			121.6,58.5 113.5,77.6 131.9,87.2 111.9,92.7 115.9,113 		"/>
		<polygon class="st2" points="257.7,79.5 244.3,95.2 243.3,74.5 222.6,73.9 238.2,60.2 225.8,43.6 246.2,47.3 251.5,27.2 
			261.3,45.5 280.3,37.1 272.1,56.1 290.5,65.7 270.5,71.3 274.5,91.6 		"/>
		<polygon class="st2" points="230.4,214.4 219.9,226.7 219.1,210.5 202.9,210 215.1,199.3 205.4,186.2 221.4,189.1 225.5,173.4 
			233.2,187.7 248.1,181.1 241.7,196.1 256.1,203.6 240.5,207.9 243.6,223.9 		"/>
		<polygon class="st2" points="42.7,225.8 32.2,238.2 31.4,222 15.2,221.4 27.4,210.7 17.7,197.7 33.7,200.6 37.8,184.9 45.5,199.2 
			60.4,192.6 54,207.5 68.4,215.1 52.8,219.4 55.9,235.4 		"/>
		<polygon class="st2" points="140.7,185.2 151,182.7 146.7,192.5 152.2,201.6 141.6,200.5 134.7,208.6 132.5,198.1 122.6,194 
			131.9,188.7 132.7,178.1 		"/>
	</g>
</g>
</svg>
