<svg xmlns="http://www.w3.org/2000/svg" xmlns:xlink="http://www.w3.org/1999/xlink" version="1.1" x="0px" y="0px" viewBox="0 0 100 100" enable-background="new 0 0 100 100" xml:space="preserve"><g><path d="M68.78,92.544c0.262-0.268,0.52-0.587,0.813-1.002c0.23-0.328,0.419-0.677,0.59-1.002c0.63-1.229,0.95-2.507,0.95-3.8   v-4.674c0-0.65-0.082-1.314-0.249-2.089c-0.071-0.314-0.147-0.672-0.263-1.005c-0.1-0.291-0.226-0.562-0.352-0.832l-0.098-0.21   c-0.154-0.312-0.317-0.604-0.504-0.895l-0.07-0.107c-0.157-0.244-0.315-0.488-0.496-0.703c-1.31-1.564-3.044-2.425-4.889-2.425   c-1.697,0-5.366-1.643-6.267-2.485l2.104-8.395l0.3-1.146l0.236-0.546c0.021-0.013,0.042-0.023,0.065-0.036   c0.039-0.023,0.081-0.045,0.112-0.061c0.032-0.014,0.058-0.029,0.118-0.061c0.194-0.089,0.381-0.191,0.569-0.291l0.606-0.315   c0.202-0.1,0.401-0.202,0.596-0.31c6.565-3.702,11.168-10.031,12.638-17.376l0.304-0.533l0.137-0.325   c0.213-0.761,2.535-5.4,6.209-12.412l2.109-3.993c1.207-2.28,2.448-4.603,3.671-6.878l0.194-0.566   c0.134-0.617,0.711-3.808-1.026-5.965c-0.918-1.142-2.282-1.769-3.849-1.769h-7.209c-0.223-0.989-0.655-1.913-1.26-2.682   C73.267,5.969,71.194,5,68.885,5H31.106c-2.31,0-4.38,0.966-5.687,2.648c-0.604,0.773-1.039,1.697-1.263,2.689h-7.208   c-1.566,0-2.934,0.627-3.847,1.769c-1.79,2.22-1.128,5.508-0.96,6.19l0.215,0.543c4.867,9,10.759,20.286,11.771,22.742   c0.062,0.15,0.104,0.263,0.152,0.402l0.398,0.764c0.011,0.044,0.026,0.086,0.037,0.128c0.011,0.039,0.021,0.076,0.031,0.11   l0.026,0.107c0.031,0.155,0.073,0.305,0.115,0.454c0.026,0.097,0.053,0.194,0.079,0.291c0.061,0.252,0.123,0.499,0.191,0.745   c1.792,6.492,5.948,11.938,11.703,15.33c0.145,0.087,0.297,0.16,0.449,0.236c0.1,0.05,0.199,0.097,0.299,0.149   c0.241,0.134,0.493,0.263,0.732,0.381c0.036,0.021,0.07,0.039,0.097,0.05l0.272,0.146c0.152,0.079,0.302,0.16,0.53,0.268   l0.105,0.058c0.008,0.003,0.016,0.009,0.026,0.014c0.031,0.129,0.076,0.297,0.126,0.493l0.285,1.157   c0.53,2.165,1.384,5.718,2.021,8.413c-0.915,0.868-4.542,2.521-6.263,2.521c-2.194,0-4.215,1.228-5.543,3.372   c-0.677,1.092-1.117,2.391-1.28,3.758c-0.034,0.302-0.068,0.604-0.078,0.957c-0.006,0.037-0.011,0.076-0.017,0.179v4.674   c0,1.616,0.468,3.188,1.35,4.545c0.151,0.228,0.325,0.438,0.504,0.647l0.1,0.118c0.254,0.308,0.479,0.552,0.714,0.77l0.136,0.115   c0.373,0.328,0.675,0.563,0.981,0.764c0.308,0.199,0.717,0.451,1.165,0.643C34.583,94.78,35.648,95,36.745,95h26.267   c0.63,0,1.275-0.094,2.042-0.293c0.834-0.224,1.605-0.562,2.293-1.006c0.462-0.299,0.888-0.638,1.323-1.052   C68.706,92.615,68.748,92.581,68.78,92.544z M33.166,81.972c0.034-1.937,1.123-3.573,2.378-3.573c2.08,0,10.905-2.339,10.895-7.099   l-2.467-9.793l-0.128-1.128l-0.071-0.241c-0.202-0.452-0.646-0.972-1.433-1.688l-0.087-0.076c-0.154-0.145-0.312-0.286-0.49-0.436   c-0.182-0.152-0.386-0.317-0.588-0.483l-0.661-0.529c-0.297-0.236-0.596-0.47-0.974-0.767l-2.294-1.826   c-3.02-2.478-6.659-5.847-7.975-9.94c-0.075-0.233-0.142-0.472-0.199-0.714l-0.023-0.092c-0.05-0.204-0.103-0.409-0.139-0.624   l-0.011-0.095c-0.031-0.187-0.047-0.378-0.065-0.569L28.82,42.16c-0.008-0.098-0.021-0.192-0.034-0.289   c-0.018-0.126-0.034-0.255-0.039-0.417l-0.005-29.531c0.005-0.451,0.102-1.202,0.296-1.454c0.438-0.563,1.173-0.876,2.068-0.876   h37.778c0.893,0,1.627,0.312,2.067,0.879c0.194,0.249,0.289,1,0.294,1.448l-0.005,29.565c-0.134,6.332-6.313,11.168-10.824,14.7   l-1.184,0.929c-0.504,0.404-0.95,0.776-1.354,1.134c-0.278,0.244-0.53,0.478-0.751,0.698c-0.482,0.493-0.767,0.86-0.935,1.246   l-0.401,1.27l-2.484,9.919c0,4.679,8.824,7.018,10.905,7.018c0.218,0,0.446,0.062,0.703,0.193c0.273,0.14,0.53,0.354,0.759,0.636   c0.212,0.265,0.364,0.506,0.496,0.789l0.028,0.084c0.107,0.252,0.199,0.544,0.271,0.864c0.062,0.293,0.1,0.595,0.112,0.896   l0.009,0.118c0.005,0.029,0.008,0.059,0.008,0.087v4.674c0,1.419-0.824,2.727-2.103,3.327c-0.479,0.226-0.981,0.341-1.49,0.341   H36.745c-0.07,0-0.142-0.011-0.21-0.021l-0.139-0.016c-0.244-0.026-0.462-0.071-0.732-0.152c-0.226-0.076-0.425-0.166-0.619-0.273   c-0.21-0.115-0.409-0.254-0.591-0.409c-0.823-0.708-1.296-1.729-1.296-2.797L33.166,81.972z M75.812,28.667l0.016-12.485h6.45   c0,0.107-0.006,0.218-0.016,0.322c-0.604,1.113-2.512,4.653-4.64,8.696L75.812,28.667z M24.179,28.664   c-2.574-4.957-5.306-10.039-6.45-12.16c-0.011-0.109-0.019-0.22-0.021-0.322h6.452L24.179,28.664z"></path><path d="M61.175,16.182c0,0-0.85,28.679-5.357,29.017c0,0.006,0,0.011,0,0.016c1.731,0,4.497,0,4.497,0   c4.579,0,5.439-29.032,5.439-29.032H61.175z"></path></g></svg>