<?xml version="1.0" encoding="utf-8"?>
<!-- Generator: Adobe Illustrator 19.2.0, SVG Export Plug-In . SVG Version: 6.00 Build 0)  -->
<svg version="1.1" id="Layer_1" xmlns="http://www.w3.org/2000/svg" xmlns:xlink="http://www.w3.org/1999/xlink" x="0px" y="0px"
	 viewBox="0 0 100 100" style="enable-background:new 0 0 100 100;" xml:space="preserve">
<g>
	<path d="M81.5,42.2c0.3,0,0.7,0.3,0.7,0.7v14.5c0,0.4-0.3,0.7-0.7,0.7h-63c-0.4,0-0.7-0.3-0.7-0.7V42.9c0-0.4,0.4-0.7,0.7-0.7H81.5
		 M81.5,39.4h-63c-2,0-3.5,1.5-3.5,3.5v14.5c0,2,1.5,3.5,3.5,3.5h63c2,0,3.5-1.5,3.5-3.5V42.9C85,40.9,83.5,39.4,81.5,39.4
		L81.5,39.4z"/>
</g>
<path d="M85,65.5c0-0.8-0.7-1.5-1.5-1.5H16.5c-0.8,0-1.5,0.7-1.5,1.5v17.8c0,0.9,0.7,1.6,1.5,1.6h66.8c0.8,0,1.5-0.7,1.5-1.5
	L85,65.5L85,65.5z M48.7,79.5l-4.3-4.2l1.6-1.8l2.5,2.5l5.9-7.2l1.8,1.6L48.7,79.5z"/>
<path d="M81.5,17.8c0.3,0,0.7,0.4,0.7,0.7V33c0,0.3-0.3,0.7-0.7,0.7h-63c-0.4,0-0.7-0.4-0.7-0.7V18.5c0-0.4,0.4-0.7,0.7-0.7H81.5
	 M81.5,15h-63c-2,0-3.5,1.6-3.5,3.5V33c0,2,1.5,3.5,3.5,3.5h63c2,0,3.5-1.5,3.5-3.5V18.5C85,16.6,83.5,15,81.5,15L81.5,15z"/>
<g>
	<rect x="20.7" y="21.4" width="2.1" height="8.6"/>
</g>
</svg>
